<mxfile host="Electron" agent="Mozilla/5.0 (X11; Linux x86_64) AppleWebKit/537.36 (KHTML, like Gecko) draw.io/28.2.5 Chrome/138.0.7204.251 Electron/37.6.1 Safari/537.36" version="28.2.5">
  <diagram name="Page-1" id="bBWssCYQKV8u0Wlv-TYi">
    <mxGraphModel dx="713" dy="393" grid="1" gridSize="10" guides="1" tooltips="1" connect="1" arrows="1" fold="1" page="1" pageScale="1" pageWidth="1169" pageHeight="827" math="0" shadow="0">
      <root>
        <mxCell id="0" />
        <mxCell id="1" parent="0" />
        <mxCell id="W60ieymdNVmd6q6p_RgB-21" value="Attribute details" style="rounded=0;whiteSpace=wrap;html=1;verticalAlign=top;fillColor=#dae8fc;strokeColor=#6c8ebf;" parent="1" vertex="1">
          <mxGeometry x="15" y="120" width="325" height="200" as="geometry" />
        </mxCell>
        <mxCell id="W60ieymdNVmd6q6p_RgB-22" value="" style="edgeStyle=orthogonalEdgeStyle;rounded=0;orthogonalLoop=1;jettySize=auto;html=1;" parent="1" source="W60ieymdNVmd6q6p_RgB-23" target="W60ieymdNVmd6q6p_RgB-25" edge="1">
          <mxGeometry relative="1" as="geometry" />
        </mxCell>
        <mxCell id="W60ieymdNVmd6q6p_RgB-23" value="attribute name&lt;span style=&quot;white-space: pre;&quot;&gt;&#x9;&lt;/span&gt;" style="rounded=1;whiteSpace=wrap;html=1;fontSize=6;" parent="1" vertex="1">
          <mxGeometry x="20" y="160" width="70" height="20" as="geometry" />
        </mxCell>
        <mxCell id="W60ieymdNVmd6q6p_RgB-24" value="" style="edgeStyle=orthogonalEdgeStyle;rounded=0;orthogonalLoop=1;jettySize=auto;html=1;" parent="1" source="W60ieymdNVmd6q6p_RgB-25" target="W60ieymdNVmd6q6p_RgB-26" edge="1">
          <mxGeometry relative="1" as="geometry" />
        </mxCell>
        <mxCell id="W60ieymdNVmd6q6p_RgB-31" style="edgeStyle=orthogonalEdgeStyle;rounded=0;orthogonalLoop=1;jettySize=auto;html=1;entryX=0.5;entryY=0;entryDx=0;entryDy=0;" parent="1" source="W60ieymdNVmd6q6p_RgB-25" target="W60ieymdNVmd6q6p_RgB-28" edge="1">
          <mxGeometry relative="1" as="geometry" />
        </mxCell>
        <mxCell id="W60ieymdNVmd6q6p_RgB-25" value="attribute type&amp;nbsp;" style="rounded=1;whiteSpace=wrap;html=1;fontSize=6;" parent="1" vertex="1">
          <mxGeometry x="130" y="160" width="70" height="20" as="geometry" />
        </mxCell>
        <mxCell id="W60ieymdNVmd6q6p_RgB-26" value="set mandatory or not" style="rounded=1;whiteSpace=wrap;html=1;fontSize=6;" parent="1" vertex="1">
          <mxGeometry x="230" y="160" width="70" height="20" as="geometry" />
        </mxCell>
        <mxCell id="W60ieymdNVmd6q6p_RgB-33" value="" style="edgeStyle=orthogonalEdgeStyle;rounded=0;orthogonalLoop=1;jettySize=auto;html=1;exitX=0.5;exitY=1;exitDx=0;exitDy=0;labelBackgroundColor=none;" parent="1" source="W60ieymdNVmd6q6p_RgB-28" target="W60ieymdNVmd6q6p_RgB-32" edge="1">
          <mxGeometry relative="1" as="geometry" />
        </mxCell>
        <mxCell id="W60ieymdNVmd6q6p_RgB-34" value="&lt;span style=&quot;font-size: 6px;&quot;&gt;Yes&lt;/span&gt;" style="edgeLabel;html=1;align=center;verticalAlign=middle;resizable=0;points=[];labelBackgroundColor=none;" parent="W60ieymdNVmd6q6p_RgB-33" vertex="1" connectable="0">
          <mxGeometry x="-0.2373" relative="1" as="geometry">
            <mxPoint x="4" as="offset" />
          </mxGeometry>
        </mxCell>
        <mxCell id="W60ieymdNVmd6q6p_RgB-28" value="if the type is dropdown/ checkbox/ radiobox/ multi-dropdown" style="rhombus;whiteSpace=wrap;html=1;fontSize=6;" parent="1" vertex="1">
          <mxGeometry x="125" y="215" width="80" height="70" as="geometry" />
        </mxCell>
        <mxCell id="W60ieymdNVmd6q6p_RgB-32" value="add the lists" style="rounded=1;whiteSpace=wrap;html=1;fontSize=6;" parent="1" vertex="1">
          <mxGeometry x="260" y="262.5" width="65" height="22.5" as="geometry" />
        </mxCell>
        <mxCell id="W60ieymdNVmd6q6p_RgB-37" style="edgeStyle=orthogonalEdgeStyle;rounded=0;orthogonalLoop=1;jettySize=auto;html=1;entryX=0.545;entryY=0.958;entryDx=0;entryDy=0;entryPerimeter=0;" parent="1" source="W60ieymdNVmd6q6p_RgB-28" target="W60ieymdNVmd6q6p_RgB-26" edge="1">
          <mxGeometry relative="1" as="geometry" />
        </mxCell>
        <mxCell id="W60ieymdNVmd6q6p_RgB-38" value="&lt;font style=&quot;font-size: 6px;&quot;&gt;No&lt;/font&gt;" style="edgeLabel;html=1;align=center;verticalAlign=middle;resizable=0;points=[];labelBackgroundColor=none;" parent="W60ieymdNVmd6q6p_RgB-37" vertex="1" connectable="0">
          <mxGeometry x="0.5158" relative="1" as="geometry">
            <mxPoint as="offset" />
          </mxGeometry>
        </mxCell>
        <mxCell id="W60ieymdNVmd6q6p_RgB-42" value="&lt;p&gt;&lt;font style=&quot;font-size: 12px;&quot;&gt;Form builder setup&lt;/font&gt;&lt;/p&gt;" style="rounded=0;whiteSpace=wrap;html=1;verticalAlign=top;labelBackgroundColor=none;fillColor=#d5e8d4;strokeColor=#82b366;align=center;fontSize=6;" parent="1" vertex="1">
          <mxGeometry x="410" y="220" width="350" height="230" as="geometry" />
        </mxCell>
        <mxCell id="W60ieymdNVmd6q6p_RgB-43" value="" style="edgeStyle=orthogonalEdgeStyle;rounded=0;orthogonalLoop=1;jettySize=auto;html=1;" parent="1" source="W60ieymdNVmd6q6p_RgB-44" target="W60ieymdNVmd6q6p_RgB-46" edge="1">
          <mxGeometry relative="1" as="geometry" />
        </mxCell>
        <mxCell id="W60ieymdNVmd6q6p_RgB-44" value="&lt;h6&gt;&lt;font style=&quot;font-size: 6px; font-weight: normal;&quot;&gt;form details&lt;/font&gt;&lt;/h6&gt;" style="rounded=1;whiteSpace=wrap;html=1;fontSize=6;" parent="1" vertex="1">
          <mxGeometry x="440" y="280" width="50" height="20" as="geometry" />
        </mxCell>
        <mxCell id="W60ieymdNVmd6q6p_RgB-45" value="" style="edgeStyle=orthogonalEdgeStyle;rounded=0;orthogonalLoop=1;jettySize=auto;html=1;" parent="1" source="W60ieymdNVmd6q6p_RgB-46" target="W60ieymdNVmd6q6p_RgB-48" edge="1">
          <mxGeometry relative="1" as="geometry" />
        </mxCell>
        <mxCell id="W60ieymdNVmd6q6p_RgB-46" value="&lt;h6&gt;&lt;font&gt;&lt;span style=&quot;font-weight: normal;&quot;&gt;&lt;font style=&quot;font-size: 6px;&quot;&gt;give form name&lt;/font&gt;&lt;/span&gt;&lt;br&gt;&lt;/font&gt;&lt;/h6&gt;" style="rounded=1;whiteSpace=wrap;html=1;fontSize=6;" parent="1" vertex="1">
          <mxGeometry x="550" y="280" width="50" height="20" as="geometry" />
        </mxCell>
        <mxCell id="W60ieymdNVmd6q6p_RgB-47" value="" style="edgeStyle=orthogonalEdgeStyle;rounded=0;orthogonalLoop=1;jettySize=auto;html=1;" parent="1" source="W60ieymdNVmd6q6p_RgB-48" target="W60ieymdNVmd6q6p_RgB-49" edge="1">
          <mxGeometry relative="1" as="geometry" />
        </mxCell>
        <mxCell id="W60ieymdNVmd6q6p_RgB-94" style="edgeStyle=orthogonalEdgeStyle;rounded=0;orthogonalLoop=1;jettySize=auto;html=1;exitX=0.5;exitY=0;exitDx=0;exitDy=0;" parent="1" source="W60ieymdNVmd6q6p_RgB-48" target="W60ieymdNVmd6q6p_RgB-23" edge="1">
          <mxGeometry relative="1" as="geometry" />
        </mxCell>
        <mxCell id="W60ieymdNVmd6q6p_RgB-48" value="&lt;h6&gt;&lt;font&gt;&lt;span style=&quot;font-weight: normal;&quot;&gt;&lt;font style=&quot;font-size: 6px;&quot;&gt;attributes details&lt;/font&gt;&lt;/span&gt;&lt;br&gt;&lt;/font&gt;&lt;/h6&gt;" style="rounded=1;whiteSpace=wrap;html=1;fontSize=6;" parent="1" vertex="1">
          <mxGeometry x="695" y="280" width="50" height="20" as="geometry" />
        </mxCell>
        <mxCell id="W60ieymdNVmd6q6p_RgB-101" style="edgeStyle=orthogonalEdgeStyle;rounded=0;orthogonalLoop=1;jettySize=auto;html=1;entryX=1;entryY=0.5;entryDx=0;entryDy=0;" parent="1" source="W60ieymdNVmd6q6p_RgB-49" target="W60ieymdNVmd6q6p_RgB-52" edge="1">
          <mxGeometry relative="1" as="geometry" />
        </mxCell>
        <mxCell id="W60ieymdNVmd6q6p_RgB-49" value="&lt;h6&gt;&lt;font style=&quot;font-size: 6px; font-weight: normal;&quot;&gt;competion of the form&amp;nbsp; builder&lt;/font&gt;&lt;/h6&gt;" style="rounded=1;whiteSpace=wrap;html=1;fontSize=6;" parent="1" vertex="1">
          <mxGeometry x="691.25" y="370" width="57.5" height="20" as="geometry" />
        </mxCell>
        <mxCell id="W60ieymdNVmd6q6p_RgB-65" value="" style="edgeStyle=orthogonalEdgeStyle;rounded=0;orthogonalLoop=1;jettySize=auto;html=1;" parent="1" source="W60ieymdNVmd6q6p_RgB-52" target="W60ieymdNVmd6q6p_RgB-64" edge="1">
          <mxGeometry relative="1" as="geometry" />
        </mxCell>
        <mxCell id="W60ieymdNVmd6q6p_RgB-102" value="" style="edgeStyle=orthogonalEdgeStyle;rounded=0;orthogonalLoop=1;jettySize=auto;html=1;entryX=0.5;entryY=1;entryDx=0;entryDy=0;" parent="1" source="W60ieymdNVmd6q6p_RgB-52" target="W60ieymdNVmd6q6p_RgB-72" edge="1">
          <mxGeometry relative="1" as="geometry" />
        </mxCell>
        <mxCell id="W60ieymdNVmd6q6p_RgB-52" value="&lt;h6&gt;&lt;font style=&quot;font-weight: normal; font-size: 6px;&quot;&gt;list&amp;nbsp; of form builder per user&lt;/font&gt;&lt;/h6&gt;" style="rounded=1;whiteSpace=wrap;html=1;fontSize=6;" parent="1" vertex="1">
          <mxGeometry x="550" y="370" width="50" height="20" as="geometry" />
        </mxCell>
        <mxCell id="W60ieymdNVmd6q6p_RgB-64" value="&lt;h6&gt;&lt;font style=&quot;font-weight: normal; font-size: 6px;&quot;&gt;edit&amp;nbsp; the&amp;nbsp; form builder&lt;/font&gt;&lt;/h6&gt;" style="rounded=1;whiteSpace=wrap;html=1;fontSize=6;" parent="1" vertex="1">
          <mxGeometry x="550" y="420" width="50" height="20" as="geometry" />
        </mxCell>
        <mxCell id="W60ieymdNVmd6q6p_RgB-72" value="&lt;h6&gt;&lt;font style=&quot;font-size: 6px; font-weight: normal;&quot;&gt;Delete&amp;nbsp; form builder&lt;/font&gt;&lt;/h6&gt;" style="rounded=1;whiteSpace=wrap;html=1;fontSize=6;" parent="1" vertex="1">
          <mxGeometry x="550" y="320" width="50" height="20" as="geometry" />
        </mxCell>
        <mxCell id="W60ieymdNVmd6q6p_RgB-81" value="&lt;font style=&quot;font-size: 12px;&quot;&gt;Form fill up&lt;/font&gt;" style="whiteSpace=wrap;html=1;aspect=fixed;verticalAlign=top;fontSize=6;fillColor=#fff2cc;strokeColor=#d6b656;" parent="1" vertex="1">
          <mxGeometry x="205" y="470" width="250" height="250" as="geometry" />
        </mxCell>
        <mxCell id="W60ieymdNVmd6q6p_RgB-82" value="" style="edgeStyle=orthogonalEdgeStyle;rounded=0;orthogonalLoop=1;jettySize=auto;html=1;" parent="1" source="W60ieymdNVmd6q6p_RgB-83" target="W60ieymdNVmd6q6p_RgB-85" edge="1">
          <mxGeometry relative="1" as="geometry" />
        </mxCell>
        <mxCell id="W60ieymdNVmd6q6p_RgB-83" value="&lt;h6&gt;&lt;font style=&quot;font-weight: normal; font-size: 6px;&quot;&gt;choose form for fill up&lt;/font&gt;&lt;/h6&gt;" style="rounded=1;whiteSpace=wrap;html=1;fontSize=6;" parent="1" vertex="1">
          <mxGeometry x="220" y="520" width="50" height="20" as="geometry" />
        </mxCell>
        <mxCell id="W60ieymdNVmd6q6p_RgB-84" value="" style="edgeStyle=orthogonalEdgeStyle;rounded=0;orthogonalLoop=1;jettySize=auto;html=1;" parent="1" source="W60ieymdNVmd6q6p_RgB-85" target="W60ieymdNVmd6q6p_RgB-86" edge="1">
          <mxGeometry relative="1" as="geometry" />
        </mxCell>
        <mxCell id="W60ieymdNVmd6q6p_RgB-85" value="&lt;h6&gt;&lt;font style=&quot;font-weight: normal; font-size: 6px;&quot;&gt;fill up&amp;nbsp; the&amp;nbsp; forms&amp;nbsp;&lt;/font&gt;&lt;/h6&gt;" style="rounded=1;whiteSpace=wrap;html=1;fontSize=6;" parent="1" vertex="1">
          <mxGeometry x="310" y="520" width="50" height="20" as="geometry" />
        </mxCell>
        <mxCell id="W60ieymdNVmd6q6p_RgB-96" value="" style="edgeStyle=orthogonalEdgeStyle;rounded=0;orthogonalLoop=1;jettySize=auto;html=1;" parent="1" source="W60ieymdNVmd6q6p_RgB-86" target="W60ieymdNVmd6q6p_RgB-95" edge="1">
          <mxGeometry relative="1" as="geometry" />
        </mxCell>
        <mxCell id="W60ieymdNVmd6q6p_RgB-98" value="" style="edgeStyle=orthogonalEdgeStyle;rounded=0;orthogonalLoop=1;jettySize=auto;html=1;" parent="1" source="W60ieymdNVmd6q6p_RgB-86" target="W60ieymdNVmd6q6p_RgB-97" edge="1">
          <mxGeometry relative="1" as="geometry" />
        </mxCell>
        <mxCell id="W60ieymdNVmd6q6p_RgB-86" value="&lt;h6&gt;&lt;font style=&quot;font-weight: normal; font-size: 6px;&quot;&gt;filled up forms show in the list&lt;/font&gt;&lt;/h6&gt;" style="rounded=1;whiteSpace=wrap;html=1;fontSize=6;" parent="1" vertex="1">
          <mxGeometry x="310" y="585" width="50" height="20" as="geometry" />
        </mxCell>
        <mxCell id="W60ieymdNVmd6q6p_RgB-99" style="edgeStyle=orthogonalEdgeStyle;rounded=0;orthogonalLoop=1;jettySize=auto;html=1;" parent="1" source="W60ieymdNVmd6q6p_RgB-87" target="W60ieymdNVmd6q6p_RgB-86" edge="1">
          <mxGeometry relative="1" as="geometry" />
        </mxCell>
        <mxCell id="W60ieymdNVmd6q6p_RgB-87" value="&lt;h6&gt;&lt;font style=&quot;font-weight: normal; font-size: 6px;&quot;&gt;separate&amp;nbsp; button should be there to show the forms which is already&amp;nbsp; filled&lt;/font&gt;&lt;/h6&gt;" style="rounded=1;whiteSpace=wrap;html=1;fontSize=6;" parent="1" vertex="1">
          <mxGeometry x="390" y="577.5" width="50" height="35" as="geometry" />
        </mxCell>
        <mxCell id="W60ieymdNVmd6q6p_RgB-90" style="edgeStyle=orthogonalEdgeStyle;rounded=0;orthogonalLoop=1;jettySize=auto;html=1;entryX=0.552;entryY=0.069;entryDx=0;entryDy=0;entryPerimeter=0;" parent="1" source="W60ieymdNVmd6q6p_RgB-52" target="W60ieymdNVmd6q6p_RgB-83" edge="1">
          <mxGeometry relative="1" as="geometry" />
        </mxCell>
        <mxCell id="W60ieymdNVmd6q6p_RgB-95" value="&lt;h6&gt;&lt;font style=&quot;font-weight: normal; font-size: 6px;&quot;&gt;edit the&amp;nbsp; form&lt;/font&gt;&lt;/h6&gt;" style="rounded=1;whiteSpace=wrap;html=1;fontSize=6;" parent="1" vertex="1">
          <mxGeometry x="220" y="630" width="50" height="20" as="geometry" />
        </mxCell>
        <mxCell id="W60ieymdNVmd6q6p_RgB-97" value="&lt;h6&gt;&lt;font style=&quot;font-weight: normal; font-size: 6px;&quot;&gt;delete the&amp;nbsp; form&lt;/font&gt;&lt;/h6&gt;" style="rounded=1;whiteSpace=wrap;html=1;fontSize=6;" parent="1" vertex="1">
          <mxGeometry x="310" y="660" width="50" height="20" as="geometry" />
        </mxCell>
        <mxCell id="W60ieymdNVmd6q6p_RgB-107" style="edgeStyle=orthogonalEdgeStyle;rounded=0;orthogonalLoop=1;jettySize=auto;html=1;entryX=0.905;entryY=0.883;entryDx=0;entryDy=0;entryPerimeter=0;" parent="1" source="W60ieymdNVmd6q6p_RgB-32" target="W60ieymdNVmd6q6p_RgB-26" edge="1">
          <mxGeometry relative="1" as="geometry" />
        </mxCell>
        <mxCell id="W60ieymdNVmd6q6p_RgB-108" value="Form Builder" style="ellipse;whiteSpace=wrap;html=1;" parent="1" vertex="1">
          <mxGeometry x="320" y="10" width="120" height="80" as="geometry" />
        </mxCell>
        <mxCell id="f13-nhplJJ8n40rOG4sR-2" style="edgeStyle=orthogonalEdgeStyle;rounded=0;orthogonalLoop=1;jettySize=auto;html=1;entryX=0.5;entryY=0;entryDx=0;entryDy=0;" edge="1" parent="1" source="f13-nhplJJ8n40rOG4sR-1" target="W60ieymdNVmd6q6p_RgB-44">
          <mxGeometry relative="1" as="geometry" />
        </mxCell>
        <mxCell id="f13-nhplJJ8n40rOG4sR-3" style="edgeStyle=orthogonalEdgeStyle;rounded=0;orthogonalLoop=1;jettySize=auto;html=1;" edge="1" parent="1" source="f13-nhplJJ8n40rOG4sR-1" target="W60ieymdNVmd6q6p_RgB-87">
          <mxGeometry relative="1" as="geometry">
            <Array as="points">
              <mxPoint x="400" y="160" />
            </Array>
          </mxGeometry>
        </mxCell>
        <mxCell id="f13-nhplJJ8n40rOG4sR-1" value="&lt;h6&gt;&lt;font style=&quot;font-size: 6px; font-weight: normal;&quot;&gt;User&lt;/font&gt;&lt;/h6&gt;" style="rounded=1;whiteSpace=wrap;html=1;fontSize=6;" vertex="1" parent="1">
          <mxGeometry x="440" y="130" width="50" height="20" as="geometry" />
        </mxCell>
        <mxCell id="f13-nhplJJ8n40rOG4sR-6" style="edgeStyle=orthogonalEdgeStyle;rounded=0;orthogonalLoop=1;jettySize=auto;html=1;entryX=0.68;entryY=-0.025;entryDx=0;entryDy=0;entryPerimeter=0;" edge="1" parent="1" source="W60ieymdNVmd6q6p_RgB-26" target="W60ieymdNVmd6q6p_RgB-48">
          <mxGeometry relative="1" as="geometry" />
        </mxCell>
      </root>
    </mxGraphModel>
  </diagram>
</mxfile>
